<svg width="800" height="554" viewBox="0 0 800 554" fill="none" xmlns="http://www.w3.org/2000/svg">
<path d="M578.569 4.11987C462.464 27.1905 470.737 121.666 377.392 161.388C336.059 178.931 240.826 189.538 230.459 184.629C167.223 154.899 74.2206 80.5383 74.2206 80.5383C74.2206 80.5383 82.5283 141.097 114.936 193.382C39.1705 175.463 0 136.703 0 136.703C0 136.703 50.1902 574.004 392.773 552.89C653.478 536.857 637.926 306.124 680.633 238.973C723.271 171.925 800 185.829 800 185.829C800 185.829 753.071 -30.4862 578.569 4.11987ZM639.575 135.673C623.645 135.673 610.771 122.765 610.771 106.87C610.771 90.9755 623.645 78.0667 639.575 78.0667C655.436 78.0667 668.343 91.0089 668.343 106.87C668.343 122.731 655.469 135.673 639.575 135.673Z" fill="#7289DA"/>
</svg>
