<svg width="191" height="202" viewBox="0 0 191 202" fill="none" xmlns="http://www.w3.org/2000/svg">
<path d="M140.462 172.438C134.764 161.616 128.716 150.633 122.234 139.727C133.294 100.373 150.563 55.377 190.68 0C150.724 26.586 120.995 66.675 100.59 106.386C75.166 70.777 43.82 39.207 3.521 21.749C35.126 57.442 65.814 100.87 85.708 139.132C81.214 150.416 77.504 161.336 74.55 171.535C69.489 134.309 41.832 96.628 13.475 95.536C43.351 125.531 62.923 172.76 46.256 198.219H68.194C68.019 199.178 67.858 200.123 67.704 201.054H106.645C106.925 200.004 107.205 198.954 107.485 197.904C107.632 198.933 107.772 199.948 107.877 200.942H154.987C154.567 200.088 154.14 199.234 153.713 198.38H173.271C162.932 169.12 168.546 131.901 178.297 89.25C156.023 109.326 144.823 139.167 140.469 172.431L140.462 172.438ZM0 131.551C21.707 164.689 25.27 182.714 16.765 198.121H44.401C39.039 168.637 31.521 150.507 0 131.551Z" fill="#7289DA"/>
</svg>
