<svg width="225" height="189" viewBox="0 0 225 189" fill="none" xmlns="http://www.w3.org/2000/svg">
<path d="M150.43 188.109H191.259C169.96 133.411 225 35.8643 225 35.8643C125.661 100.116 150.43 188.109 150.43 188.109Z" fill="#7289DA"/>
<path d="M225 11.9395C143.25 41.3885 124.599 83.108 124.599 83.108C124.599 83.108 143.501 122.453 138.251 139.141C160.029 51.0907 225 11.9395 225 11.9395Z" fill="#7289DA"/>
<path d="M0 30.499C0 30.499 55.0629 128.046 33.7409 182.744H74.5815C74.5815 182.744 99.3507 94.7619 0 30.499Z" fill="#7289DA"/>
<path d="M38.6606 0C38.6606 0 105.857 119.075 79.8437 185.837H129.69C129.69 185.837 159.915 78.4167 38.6606 0Z" fill="#7289DA"/>
</svg>
