<svg width="232" height="128" viewBox="0 0 232 128" fill="none" xmlns="http://www.w3.org/2000/svg">
<path d="M194.539 71.5331C197.191 67.3474 200.121 64.1001 202.757 61.6727C195.123 63.5699 188.417 68.4325 182.743 76.2064C176.725 84.4541 174.188 93.028 174.164 93.1132C173.803 94.3519 172.598 95.1451 171.318 94.9904C170.039 94.8337 169.061 93.7733 169.01 92.4847C168.043 67.9812 174.2 48.0295 179.536 35.6076C182.035 29.7867 184.571 25.0545 186.667 21.5284C162.732 35.6402 151.704 81.8274 151.585 82.3397C151.283 83.6336 150.061 84.4988 148.744 84.3579C147.423 84.2164 146.415 83.1124 146.395 81.7838C146.098 62.8966 142.544 50.0319 139.103 41.9277C139.676 64.6881 131.05 98.1152 130.595 99.8593C130.265 101.124 129.059 101.955 127.759 101.809C126.46 101.665 125.465 100.589 125.422 99.2829C124.661 76.3699 121.307 62.449 118.598 54.7646C115.396 72.0159 106.588 89.7954 106.148 90.6764C105.651 91.6721 104.579 92.2475 103.475 92.1113C102.37 91.9756 101.471 91.1592 101.228 90.0726C97.2345 72.138 99.0723 39.4088 109.887 21.7714C108.025 22.5746 105.879 23.8322 103.646 25.7972C97.4554 31.2431 89.4912 43.3126 86.6998 69.8863C86.562 71.196 85.4769 72.2021 84.1604 72.2405C82.8497 72.2747 81.702 71.3364 81.489 70.0372C73.9008 23.7049 56.7988 10.4719 46.9321 6.7207C66.3757 31.5145 71.6313 90.152 72.831 108.878C72.9178 110.239 71.95 111.441 70.6014 111.646C69.256 111.848 67.9715 110.991 67.6507 109.665C62.2826 87.5016 52.2345 71.6862 38.5918 63.9275C34.5234 61.6138 30.7217 60.3367 27.6284 59.6372C45.107 76.1974 49.9722 92.39 50.8396 103.521C51.5033 112.046 50.0059 118.804 48.7583 122.738H189.375C182.77 97.7512 188.435 81.1673 194.539 71.5331Z" fill="#7289DA"/>
<path d="M229.091 122.739H194.817C189.461 103.621 190.81 87.4286 198.833 74.5854C205.007 64.7029 213.073 60.5641 213.148 60.5262C214.222 59.9923 214.799 58.7999 214.55 57.626C214.302 56.4531 213.292 55.5962 212.093 55.5431C198.872 54.964 187.221 61.079 178.401 73.2353C176.864 75.3533 175.542 77.4751 174.417 79.4859C176.796 41.8342 195.496 17.6689 195.704 17.4049C196.405 16.5191 196.462 15.2852 195.846 14.3385C195.23 13.3917 194.078 12.9452 192.985 13.2271C170.441 19.048 156.973 48.6734 150.706 66.8463C147.399 38.4164 136.735 27.4462 136.212 26.926C135.327 26.0429 133.944 25.9056 132.902 26.5962C131.86 27.2874 131.448 28.616 131.918 29.7747C136.246 40.4677 132.711 64.4547 129.419 81.0654C126.391 53.8153 119.548 44.19 119.203 43.7208C118.541 42.8204 117.382 42.437 116.315 42.7641C115.247 43.0907 114.502 44.0569 114.457 45.1736C113.98 57.0464 108.73 71.5059 105.046 80.3096C103.136 60.5541 106.643 31.3147 118.147 19.585C118.864 18.8539 119.092 17.7741 118.73 16.8158C118.369 15.858 117.485 15.1968 116.464 15.1206C116.149 15.0974 108.663 14.6267 100.594 21.4848C92.6753 28.2147 87.0379 39.3232 83.7616 54.6079C78.4814 32.6712 70.1994 16.9794 59.0619 7.85848C48.5872 -0.720125 39.4484 -0.00743389 39.065 0.0283322C37.9931 0.125111 37.0879 0.864629 36.7807 1.89606C36.473 2.92749 36.8249 4.04203 37.6686 4.71001C52.6304 16.5512 61.5414 52.3478 65.6482 87.709C58.2735 71.9503 48.795 63.6825 41.1905 59.358C29.6938 52.8191 19.9317 53.5644 19.5209 53.5981C18.4532 53.6896 17.547 54.4191 17.2308 55.4432C16.9142 56.4667 17.2514 57.5802 18.0824 58.2577C34.7094 71.8078 44.2148 87.4996 45.5702 103.637C46.3439 112.846 44.2669 119.838 43.1892 122.74H2.62986C1.17713 122.74 0 123.917 0 125.37C0 126.823 1.17713 128 2.62986 128H229.091C230.544 128 231.721 126.823 231.721 125.37C231.721 123.916 230.544 122.739 229.091 122.739ZM48.7576 122.739C50.0052 118.805 51.5027 112.047 50.8389 103.522C49.9721 92.3912 45.1069 76.1991 27.6277 59.6383C30.721 60.3379 34.5222 61.6149 38.5911 63.9287C52.2338 71.6873 62.282 87.5028 67.65 109.666C67.9709 110.992 69.2558 111.849 70.6007 111.647C71.9493 111.442 72.9171 110.24 72.8303 108.879C71.6306 90.1531 66.3751 31.5157 46.9314 6.72185C56.7982 10.4731 73.9002 23.706 81.4884 70.0384C81.7014 71.3381 82.849 72.2764 84.1598 72.2417C85.4763 72.2038 86.5614 71.1976 86.6992 69.8874C89.4905 43.3137 97.4548 31.2437 103.645 25.7983C105.879 23.8333 108.024 22.5757 109.886 21.7726C99.0716 39.41 97.2339 72.1397 101.228 90.0737C101.47 91.1599 102.369 91.9767 103.475 92.1124C104.579 92.2486 105.65 91.6727 106.147 90.6775C106.588 89.796 115.395 72.0166 118.598 54.7657C121.306 62.4497 124.66 76.3706 125.421 99.284C125.464 100.589 126.46 101.666 127.758 101.81C129.058 101.956 130.264 101.125 130.594 99.8605C131.049 98.1164 139.676 64.6893 139.102 41.9289C142.543 50.033 146.097 62.8978 146.394 81.7849C146.414 83.113 147.423 84.2176 148.743 84.359C150.06 84.5005 151.283 83.6348 151.584 82.3409C151.704 81.8286 162.732 35.6414 186.667 21.5296C184.571 25.0551 182.035 29.7873 179.535 35.6088C174.199 48.0307 168.042 67.9824 169.009 92.4858C169.06 93.7739 170.038 94.8348 171.318 94.9916C172.598 95.1462 173.803 94.353 174.163 93.1144C174.188 93.0292 176.724 84.4548 182.743 76.2075C188.416 68.4337 195.122 63.571 202.757 61.6739C200.12 64.1012 197.19 67.3486 194.538 71.5343C188.434 81.168 182.77 97.7524 189.374 122.74H48.7576V122.739Z" fill="#7289DA"/>
</svg>
