<svg width="227" height="222" viewBox="0 0 227 222" fill="none" xmlns="http://www.w3.org/2000/svg">
<path d="M113.5 0C50.8291 0 0 50.8196 0 113.5C0 163.648 32.5177 206.192 77.6245 221.202C83.2901 222.252 85.125 218.733 85.125 215.745V194.615C53.5531 201.481 46.9795 181.222 46.9795 181.222C41.8153 168.103 34.3716 164.613 34.3716 164.613C24.0715 157.566 35.1566 157.718 35.1566 157.718C46.5539 158.512 52.5505 169.418 52.5505 169.418C62.6709 186.764 79.1 181.751 85.579 178.848C86.591 171.517 89.5326 166.505 92.7863 163.676C67.5798 160.792 41.0775 151.059 41.0775 107.579C41.0775 95.1792 45.5135 85.0588 52.768 77.1138C51.5952 74.2479 47.7078 62.6993 53.8747 47.0741C53.8747 47.0741 63.4087 44.0285 85.0966 58.7079C94.1482 56.192 103.852 54.934 113.5 54.8867C123.147 54.934 132.861 56.192 141.932 58.7079C163.601 44.0285 173.116 47.0741 173.116 47.0741C179.292 62.7088 175.405 74.2574 174.232 77.1138C181.515 85.0588 185.913 95.1887 185.913 107.579C185.913 151.173 159.363 160.773 134.091 163.582C138.158 167.1 141.875 174.005 141.875 184.598V215.745C141.875 218.762 143.691 222.309 149.451 221.193C194.52 206.163 227 163.629 227 113.5C227 50.8196 176.18 0 113.5 0Z" fill="#7289DA"/>
</svg>
