<svg width="2000" height="2000" viewBox="0 0 2000 2000" fill="none" xmlns="http://www.w3.org/2000/svg">
<path d="M1145.39 419.87V339.44C1176.54 337.5 1201.12 314.62 1201.12 286.68C1201.12 264.51 1185.66 245.51 1163.72 237.68C1170.55 245.29 1175.02 254.714 1176.6 264.813C1178.19 274.911 1176.81 285.253 1172.64 294.587C1168.48 303.921 1161.69 311.847 1153.11 317.407C1144.54 322.968 1134.53 325.925 1124.31 325.92H1115.86V412.37V442.6V533.7L1412.91 1045C1460.54 1127 1401.41 1229.69 1306.61 1229.69L693.35 1229.61C598.56 1229.61 539.44 1126.86 587.09 1044.9L884.3 533.66V442.58V412.31V325.86H875.84C865.621 325.861 855.621 322.903 847.047 317.344C838.473 311.784 831.693 303.861 827.525 294.531C823.357 285.201 821.98 274.864 823.56 264.768C825.14 254.672 829.61 245.25 836.43 237.64C814.52 245.51 799.08 264.49 799.08 286.64C799.08 314.53 823.54 337.36 854.59 339.4V419.85C633.7 483 472 686.41 472 927.58C471.851 1025.58 499.115 1121.68 550.71 1205C643.71 1355.36 810.17 1455.54 999.99 1455.54C1189.81 1455.54 1356.2 1355.4 1449.25 1205.05C1500.87 1121.72 1528.15 1025.61 1528 927.58C1528 686.41 1366.28 483 1145.39 419.87Z" fill="#7289DA"/>
<path d="M875.38 718.33H823V1176.14H929V1048.61H1026.43L1114.72 1176.14H1228.54L1125.8 1029C1155.88 1015.93 1179.09 997.07 1195.44 972.43C1211.79 947.79 1219.97 918.456 1219.98 884.43C1219.98 850.43 1211.92 820.996 1195.8 796.13C1179.68 771.263 1156.68 752.08 1126.8 738.58C1096.93 725.06 1061.74 718.303 1021.22 718.31C1015.18 717.923 1008.92 717.726 1002.44 717.72H875.44L875.38 718.33ZM1087.85 825.25C1104.43 838.99 1112.72 858.723 1112.71 884.45C1112.71 901.43 1108.98 915.846 1101.53 927.7C1097.81 933.574 1093.2 938.833 1087.87 943.29C1071.3 957.223 1047.1 964.196 1015.27 964.21H928.94V804.65H1015.25C1047.08 804.65 1071.28 811.516 1087.85 825.25Z" fill="#7289DA"/>
<path d="M919.91 220C926.051 224.926 933.684 227.619 941.556 227.638C949.429 227.657 957.074 225 963.239 220.104C969.404 215.208 973.723 208.363 975.487 200.691C977.251 193.019 976.356 184.975 972.949 177.878C969.542 170.78 963.825 165.051 956.735 161.63C949.645 158.208 941.603 157.297 933.927 159.045C926.251 160.794 919.397 165.098 914.488 171.253C909.58 177.407 906.907 185.047 906.91 192.92C906.907 198.12 908.074 203.254 910.324 207.941C912.574 212.629 915.851 216.75 919.91 220Z" fill="#7289DA"/>
<path d="M1075.7 158.19C1090.02 158.19 1101.63 146.581 1101.63 132.26C1101.63 117.939 1090.02 106.33 1075.7 106.33C1061.38 106.33 1049.77 117.939 1049.77 132.26C1049.77 146.581 1061.38 158.19 1075.7 158.19Z" fill="#7289DA"/>
<path d="M961.22 72.3298C970.272 72.3298 977.61 64.9918 977.61 55.9398C977.61 46.8879 970.272 39.5498 961.22 39.5498C952.168 39.5498 944.83 46.8879 944.83 55.9398C944.83 64.9918 952.168 72.3298 961.22 72.3298Z" fill="#7289DA"/>
</svg>
