<svg width="131" height="108" viewBox="0 0 131 108" fill="none" xmlns="http://www.w3.org/2000/svg">
<path d="M32.229 61.7719L46.466 101.178C46.466 101.178 48.246 104.865 50.152 104.865C52.058 104.865 80.407 75.3729 80.407 75.3729L111.932 14.4829L32.737 51.5999L32.229 61.7719Z" fill="#7289DA"/>
<path d="M51.1061 71.8779L48.3731 100.924C48.3731 100.924 47.2291 109.824 56.1271 100.924C65.0251 92.0239 73.5421 85.1609 73.5421 85.1609" fill="#7289DA"/>
<path d="M32.4861 63.1779L3.20011 53.6359C3.20011 53.6359 -0.299893 52.2159 0.827107 48.9959C1.05911 48.3319 1.52711 47.7669 2.92711 46.7959C9.41611 42.2729 123.033 1.43591 123.033 1.43591C123.033 1.43591 126.241 0.354915 128.133 1.07391C128.601 1.2188 129.022 1.48542 129.354 1.84649C129.685 2.20756 129.914 2.65012 130.018 3.12892C130.223 3.97458 130.308 4.84463 130.272 5.71391C130.263 6.46591 130.172 7.16291 130.103 8.25591C129.411 19.4209 108.703 102.749 108.703 102.749C108.703 102.749 107.464 107.625 103.025 107.792C101.934 107.827 100.847 107.642 99.8295 107.249C98.8115 106.855 97.8833 106.26 97.1001 105.5C88.3891 98.0069 58.2811 77.7729 51.6281 73.3229C51.478 73.2207 51.3517 73.0874 51.2575 72.9322C51.1633 72.7769 51.1035 72.6032 51.0821 72.4229C50.9891 71.9539 51.4991 71.3729 51.4991 71.3729C51.4991 71.3729 103.925 24.7729 105.32 19.8809C105.428 19.5019 105.02 19.3149 104.472 19.4809C100.99 20.7619 40.6281 58.8809 33.9661 63.0879C33.4866 63.233 32.9797 63.2638 32.4861 63.1779Z" fill="#7289DA"/>
</svg>
